PathFileType	4	(X/Y/Z)	C:/Users/opensim2020/Desktop/walking_exp_matlab/subject01_walking10_straight_04.trc																																																																																																																															
DataRate	CameraRate	NumFrames	NumMarkers	Units	OrigDataRate	OrigDataStartFrame	OrigNumFrames																																																																																																																											
100	100	7	43	mm	100	3993	274																																																																																																																											
Frame#	Time	LFHD			RFHD			LBHD			RBHD			C7			T10			CLAV			STRN			RBAK			LSHO			LUPA			LELB			LFRM			LWRA			LWRB			LFIN			RSHO			RUPA			RELB			RFRM			RWRA			RWRB			RFIN			LASI			RASI			LPSI			RPSI			LTHI			LKNE			LTIB			LANK			LHEE			LTOE			RTHI			RKNE			RTIB			RANK			RHEE			RTOE			*39			*40			*41			*42		
		X1	Y1	Z1	X2	Y2	Z2	X3	Y3	Z3	X4	Y4	Z4	X5	Y5	Z5	X6	Y6	Z6	X7	Y7	Z7	X8	Y8	Z8	X9	Y9	Z9	X10	Y10	Z10	X11	Y11	Z11	X12	Y12	Z12	X13	Y13	Z13	X14	Y14	Z14	X15	Y15	Z15	X16	Y16	Z16	X17	Y17	Z17	X18	Y18	Z18	X19	Y19	Z19	X20	Y20	Z20	X21	Y21	Z21	X22	Y22	Z22	X23	Y23	Z23	X24	Y24	Z24	X25	Y25	Z25	X26	Y26	Z26	X27	Y27	Z27	X28	Y28	Z28	X29	Y29	Z29	X30	Y30	Z30	X31	Y31	Z31	X32	Y32	Z32	X33	Y33	Z33	X34	Y34	Z34	X35	Y35	Z35	X36	Y36	Z36	X37	Y37	Z37	X38	Y38	Z38	X39	Y39	Z39	X40	Y40	Z40	X41	Y41	Z41	X42	Y42	Z42	X43	Y43	Z43
																																																																																																																																		
172	1.71	130.10603	1660.97253	987.19995	174.43057	1665.18591	1093.17542	16.05037	1628.18848	1028.49463	60.1419	1633.02612	1141.94788	-19.14557	1422.0127	1065.89111	-56.05382	1132.60815	1074.25037	129.51494	1363.66638	1057.21313	168.40189	1205.80359	1049.76074	-64.52126	1230.93359	1148.3385	60.30566	1394.65454	900.32318	52.65501	1211.85315	809.68152	70.16537	1059.6759	801.62909	149.71715	976.70123	774.28308	272.09235	911.04419	785.04034	224.34222	879.87415	767.36676	297.50415	840.40192	751.44476	74.73974	1390.45422	1212.37085	18.46438	1191.16223	1315.17566	13.33835	1067.14355	1316.83264	35.92118	949.07483	1347.04614	110.28355	827.87885	1326.26904	68.0614	831.82111	1367.40149	99.01963	749.6355	1362.01099	105.46964	923.75012	952.56866	124.02783	926.42285	1168.82764	-74.87055	937.10077	1023.97766	-61.18974	935.80444	1168.38147	16.6562	594.22717	911.50726	-23.48327	462.4516	930.45105	-123.17074	298.44467	935.05713	-195.35345	90.16478	1000.13715	-238.21271	71.03814	1058.95154	-56.35304	34.54459	984.47321	140.72469	599.02032	1234.79675	191.82111	452.58484	1203.78223	188.19093	278.23926	1213.90173	231.27481	74.60435	1170.98206	195.2498	27.65429	1119.39221	375.29391	66.31995	1172.82776	160.07365	1699.71191	1072.91187	-1973.13196	1023.39886	3101.83057	-2012.53284	1022.12671	3140.80859	NaN	NaN	NaN
173	1.72	137.55424	1660.92188	989.51276	182.07619	1664.97827	1095.43225	23.58009	1627.8645	1030.73047	67.99932	1632.55957	1144.3147	-11.784	1421.49841	1068.22229	-48.02757	1132.15088	1075.97522	137.07408	1363.32556	1059.05603	176.10764	1205.61023	1051.20081	-56.58812	1229.76428	1150.38159	67.30242	1394.50671	902.2702	59.51126	1211.74402	811.50146	76.34911	1059.42969	803.36652	155.66673	976.16138	775.74329	277.79663	909.94971	786.24884	229.879	879.02289	768.63635	302.86765	839.27173	752.59192	82.50986	1389.62744	1214.49048	26.86744	1189.91199	1317.03516	21.99754	1065.8219	1318.39197	44.82964	947.68127	1348.36609	119.15288	826.60773	1327.08801	77.03943	830.4657	1368.29114	108.07499	748.39478	1362.8728	113.63542	923.28888	953.16144	132.57465	925.91882	1169.23547	-66.69392	936.41431	1025.42712	-52.39606	934.93805	1170.11536	24.15339	593.72717	912.00122	-16.13977	462.02625	930.93298	-118.02362	299.41293	935.37421	-193.96187	92.30845	999.68549	-237.37579	74.18392	1058.2594	-56.13256	34.5063	984.51611	149.62334	599.31232	1234.72876	200.06924	452.36755	1204.05383	193.75069	278.05444	1213.05579	233.66402	74.78601	1170.69226	196.64185	28.56706	1118.89612	377.64777	61.05317	1173.29468	167.57195	1699.28027	1075.24377	-1973.0918	1023.28094	3101.8479	-2012.52234	1022.14838	3140.72485	NaN	NaN	NaN
174	1.73	145.13214	1661.19287	991.91608	189.93687	1665.05957	1097.5907	31.18504	1627.97754	1033.15112	76.04545	1632.56165	1146.77161	-4.18548	1421.32947	1070.68811	-39.96325	1132.06604	1077.41748	144.66753	1363.27917	1060.91357	183.75684	1205.72424	1052.76282	-48.60678	1229.05334	1152.42847	74.43089	1394.62463	904.27087	66.37904	1211.7793	813.48102	82.75468	1059.36426	805.17529	161.52168	975.63593	777.27814	283.22397	908.72101	787.58429	235.10965	878.11371	770.02313	307.72134	838.0072	753.80304	90.32935	1388.98059	1216.71924	35.30859	1188.85974	1319.20227	30.8361	1064.60413	1319.90674	53.75366	946.43781	1349.59082	128.12415	825.46887	1327.87817	86.12183	829.1543	1369.23914	117.23839	747.28998	1363.60901	121.86185	922.98273	953.89905	141.24451	925.76892	1169.83459	-58.51077	935.87256	1026.85168	-43.74938	934.52795	1171.71875	32.04614	593.44495	912.64685	-8.15042	461.72839	931.5462	-112.48598	300.62607	935.67328	-192.37625	95.08792	999.14172	-236.28474	77.86678	1057.552	-55.90521	34.49463	984.50092	157.10167	599.96832	1234.69043	208.28065	453.39948	1204.474	199.97162	278.48312	1212.84119	236.37262	74.65081	1171.03223	197.74847	29.84584	1119.30725	380.09985	56.78693	1172.92175	175.28981	1699.48413	1077.68323	-1973.07349	1023.72339	3102.0481	-2012.55396	1022.10065	3140.61523	NaN	NaN	NaN
175	1.74	152.84799	1661.54602	994.32751	197.93921	1665.18506	1099.91699	39.09321	1628.77734	1037.48682	84.10949	1632.75952	1149.25134	3.61287	1422.021	1073.39709	-31.97275	1132.15759	1078.80457	152.34605	1363.54834	1062.93494	191.5667	1205.93652	1054.40247	-40.74211	1228.86597	1154.4198	81.81247	1394.99268	906.21594	73.18343	1212.12744	815.56372	89.08612	1059.50842	807.05536	167.15009	975.3136	778.98108	288.33597	907.47675	789.02539	239.97874	877.17737	771.47266	312.18515	836.70874	755.04919	98.19901	1388.67578	1218.89575	43.93225	1188.02271	1320.65442	39.71561	1063.72913	1321.47107	62.85699	945.40149	1350.86865	137.14659	824.53491	1328.74854	95.38565	828.10345	1370.06409	126.39889	746.53052	1364.49902	130.07056	922.94507	954.67175	149.9386	926.00867	1170.47034	-50.2277	935.54529	1028.10669	-35.27058	934.74457	1173.12537	40.36111	593.46375	913.34393	0.25443	461.65884	932.05573	-106.45626	302.26801	935.78918	-190.37462	98.07774	998.82227	-234.78169	82.07738	1057.01965	-55.64506	34.45364	984.55292	165.44312	600.75677	1235.00732	216.62328	454.50104	1205.17163	206.62994	279.28342	1213.44604	238.96045	74.46818	1171.57458	198.97412	30.68086	1119.99365	382.53378	52.72209	1171.38794	183.25804	1699.75208	1079.99243	-1973.12842	1023.40747	3101.98926	-2012.47485	1021.935	3140.67993	NaN	NaN	NaN
176	1.75	160.65211	1661.90198	996.70575	205.92918	1665.39209	1102.1897	46.89797	1629.15051	1040.11133	92.24989	1632.88611	1151.7439	11.81858	1422.48291	1075.14087	-24.02036	1132.40051	1080.23267	160.02551	1363.92883	1064.91431	199.45955	1206.41016	1056.10693	-32.93129	1229.06958	1156.42822	89.53452	1395.54468	908.22156	80.11911	1212.75903	817.76514	95.341	1060.04431	808.92493	172.67047	975.15045	780.77057	292.85266	906.12079	790.54877	244.33397	876.49683	773.26044	316.44952	835.27472	756.37799	106.13618	1388.38159	1220.88513	52.59838	1187.50098	1322.37708	48.74716	1063.10291	1322.94531	71.99257	944.77057	1352.18237	146.21387	823.83484	1329.88721	104.45145	827.5108	1371.28076	135.62714	746.00342	1365.5188	138.35797	923.16907	955.53241	158.61885	926.85443	1171.20117	-41.8536	935.52325	1029.19299	-26.7175	935.45013	1173.99158	49.12613	593.62512	914.17157	9.3399	461.73227	932.41431	-99.96711	304.17981	935.85675	-188.30293	101.72868	998.18103	-233.02043	86.79281	1056.40686	-55.40514	34.50302	984.55023	174.31219	601.91681	1235.21301	224.72672	455.15091	1205.91821	213.02142	279.95398	1214.46826	241.37164	74.26089	1172.26404	199.95981	31.76064	1121.03894	384.8031	49.0019	1169.38306	191.41634	1700.03687	1082.29785	-1972.95569	1023.90454	3102.08911	-2012.4762	1022.08893	3140.73511	NaN	NaN	NaN
177	1.76	168.32112	1662.58887	999.04047	213.9782	1665.70984	1104.48474	54.72247	1629.54944	1042.68933	100.34839	1633.12659	1154.19519	19.51939	1423.14453	1077.10498	-16.02622	1132.72253	1081.63098	167.7623	1364.36731	1066.93286	207.49081	1207.00757	1057.85864	-25.18824	1229.42432	1158.19507	97.45101	1396.25244	910.26965	87.12043	1213.5802	819.98895	101.43818	1060.85217	810.91327	177.92889	975.27179	782.62628	297.55084	905.02222	792.20111	248.48416	875.7901	775.0274	319.80429	834.00372	757.8927	113.67002	1388.70276	1223.14673	61.26369	1187.29504	1324.28552	57.7388	1062.80542	1324.37671	81.21304	944.5484	1353.43921	155.57442	823.85406	1330.83496	113.87694	827.24713	1372.37085	144.94531	745.77228	1366.46423	146.73076	923.61438	956.52765	167.33914	928.03662	1172.11877	-33.29748	935.81567	1030.12073	-18.36072	936.47418	1174.84131	58.35735	593.86322	915.01898	18.93268	461.91147	932.71832	-93.11227	306.19553	935.89191	-185.73723	105.77464	997.44244	-230.93889	91.99496	1055.58081	-55.12101	34.58516	984.53986	183.5423	603.03046	1235.74133	232.44382	455.42953	1206.68884	219.0417	280.04413	1215.70923	243.67244	73.95956	1172.94299	200.80342	32.37223	1121.93555	386.75266	46.13496	1167.6969	199.5244	1700.40222	1084.74194	-1973.02405	1023.48877	3101.84766	-2012.49329	1022.00458	3140.66235	NaN	NaN	NaN
178	1.77	176.25281	1663.16406	1001.38989	221.99934	1666.10376	1106.82056	62.6385	1630.13257	1045.28894	108.50108	1633.48438	1156.75049	27.26363	1423.86914	1079.61279	-8.00492	1133.1322	1083.00134	175.50415	1364.84778	1068.9563	215.60472	1207.79907	1059.62488	-17.39129	1229.84814	1159.77307	105.36002	1397.12793	912.36255	94.07355	1214.57849	822.24512	107.35514	1061.88721	812.81989	183.02051	975.57733	784.49896	301.52551	903.70679	793.94867	252.4259	875.1405	776.48718	323.37198	832.47925	759.4328	121.40119	1388.83472	1225.11206	69.85905	1187.21472	1325.97168	66.75135	1062.80554	1325.81433	90.39072	944.49475	1354.55969	164.88177	823.99707	1332.0155	123.04501	827.401	1373.7406	154.31708	745.84314	1367.50134	155.24774	924.22888	957.77393	176.0916	929.26056	1173.22058	-24.72472	936.41522	1031.02905	-9.87351	937.6825	1175.59607	68.09409	594.18292	915.89099	29.06905	462.19519	932.9292	-85.75295	308.46915	935.72882	-182.8215	109.89555	996.4729	-228.28955	97.86107	1054.57019	-55.16268	34.45534	984.33923	192.44765	603.82068	1236.50281	239.99696	455.29419	1207.27673	224.76636	279.80637	1216.96509	245.64584	73.6553	1172.9585	201.68954	32.75337	1122.25183	388.20676	43.76894	1167.21606	207.49783	1700.81836	1087.16602	-1972.96216	1023.73645	3101.88745	-2012.44043	1021.99268	3140.72485	NaN	NaN	NaN
